<svg width="136" height="136" viewBox="0 0 136 136" fill="none" xmlns="http://www.w3.org/2000/svg">
<path d="M121.841 72.7577C121.906 72.0208 122.085 71.3536 122.376 70.756C122.677 70.1592 123.066 69.6528 123.543 69.2368C124.029 68.8215 124.579 68.5128 125.193 68.3107C125.807 68.1086 126.469 68.0391 127.179 68.1022C127.888 68.1653 128.528 68.3505 129.096 68.6578C129.665 68.9651 130.147 69.3656 130.544 69.8593C130.948 70.3629 131.241 70.9346 131.423 71.5742C131.613 72.2147 131.675 72.9079 131.609 73.6539C131.542 74.409 131.358 75.0895 131.056 75.6954C130.755 76.3013 130.339 76.8007 129.809 77.1937L129.038 76.2724C129.455 75.9152 129.77 75.5123 129.984 75.0637C130.207 74.625 130.342 74.1373 130.39 73.6005C130.438 73.0547 130.393 72.5371 130.253 72.0479C130.112 71.5677 129.893 71.1402 129.596 70.7654C129.299 70.3997 128.931 70.1011 128.493 69.8696C128.064 69.648 127.585 69.5137 127.057 69.4668C126.539 69.4207 126.044 69.4683 125.573 69.6098C125.11 69.7612 124.696 69.9903 124.329 70.2969C123.971 70.6135 123.68 70.9957 123.457 71.4435C123.234 71.8913 123.098 72.3881 123.049 72.9339C123.004 73.4434 123.038 73.937 123.151 74.4147C123.273 74.9023 123.503 75.3629 123.84 75.7963L122.734 76.4819C122.375 75.9733 122.12 75.3912 121.967 74.7358C121.823 74.0903 121.781 73.4309 121.841 72.7577ZM123.028 75.1877L126.576 75.5032L126.459 76.8133L122.734 76.4819L123.028 75.1877Z" fill="black"/>
<path d="M126.108 81.3251L124.8 86.0805L123.677 85.7716L124.985 81.0162L126.108 81.3251ZM121.967 80.314L120.484 85.7034L119.335 85.3873L121.181 78.6769L130.428 81.2203L128.633 87.7458L127.483 87.4297L128.915 82.2252L121.967 80.314Z" fill="black"/>
<path d="M117.713 89.2882L125.347 92.7889L126.717 89.8002L127.801 90.297L124.494 97.5073L123.411 97.0105L124.782 94.0218L117.148 90.5211L117.713 89.2882Z" fill="black"/>
<path d="M112.733 98.2991L120.549 103.855L119.755 104.972L111.939 99.4158L112.733 98.2991Z" fill="black"/>
<path d="M110.267 101.901L117.219 108.508L116.445 109.322L106.365 108.493L106.771 108.066L112.481 113.493L111.537 114.486L104.586 107.879L105.36 107.065L115.439 107.894L115.034 108.321L109.323 102.894L110.267 101.901Z" fill="black"/>
<path d="M97.744 113.071L102.252 120.157L105.026 118.392L105.666 119.397L98.9737 123.655L98.3339 122.65L101.108 120.885L96.5997 113.799L97.744 113.071Z" fill="black"/>
<path d="M88.3136 117.934C88.9907 117.659 89.6676 117.518 90.3443 117.51C91.0125 117.505 91.6406 117.62 92.2285 117.855C92.8199 118.098 93.3456 118.446 93.8057 118.9C94.2657 119.355 94.6279 119.907 94.8921 120.559C95.1564 121.211 95.2815 121.86 95.2676 122.506C95.2537 123.152 95.1175 123.764 94.859 124.342C94.6039 124.929 94.2349 125.453 93.752 125.915C93.2691 126.377 92.6849 126.746 91.9993 127.024C91.3222 127.299 90.6537 127.437 89.994 127.438C89.3292 127.452 88.7011 127.337 88.1098 127.094C87.5134 126.862 86.9894 126.518 86.5378 126.06C86.0777 125.606 85.7139 125.049 85.4462 124.389C85.1785 123.729 85.0516 123.076 85.0656 122.429C85.071 121.786 85.2055 121.17 85.469 120.58C85.7275 120.003 86.0982 119.483 86.5811 119.021C87.059 118.571 87.6365 118.209 88.3136 117.934ZM88.7717 119.064C88.2808 119.263 87.8623 119.531 87.5162 119.869C87.1616 120.21 86.8938 120.594 86.7126 121.022C86.5264 121.463 86.4328 121.924 86.4316 122.408C86.422 122.894 86.5168 123.383 86.7158 123.874C86.9148 124.365 87.1873 124.782 87.5332 125.125C87.8707 125.471 88.2577 125.733 88.6944 125.91C89.1261 126.1 89.5879 126.194 90.0797 126.191C90.5631 126.192 91.0503 126.094 91.5412 125.894C92.0406 125.692 92.4675 125.42 92.8221 125.079C93.1682 124.742 93.4344 124.353 93.6206 123.913C93.8102 123.481 93.9098 123.022 93.9194 122.535C93.9205 122.052 93.8215 121.565 93.6225 121.074C93.4235 120.583 93.1552 120.165 92.8178 119.818C92.4719 119.476 92.0789 119.211 91.6387 119.025C91.202 118.847 90.742 118.758 90.2586 118.757C89.7667 118.759 89.2711 118.861 88.7717 119.064Z" fill="black"/>
<path d="M78.0259 120.998C79.2631 120.757 80.3047 120.922 81.1509 121.492C81.997 122.062 82.5527 123.029 82.818 124.392L83.8601 129.744L82.5153 130.006L81.4838 124.707C81.2795 123.658 80.9017 122.936 80.3502 122.541C79.7898 122.148 79.0882 122.033 78.2455 122.197C77.3938 122.363 76.7865 122.733 76.4235 123.306C76.0516 123.881 75.9678 124.692 76.172 125.741L77.2036 131.04L75.8992 131.294L74.8571 125.942C74.5918 124.579 74.7443 123.474 75.3147 122.628C75.876 121.784 76.7798 121.24 78.0259 120.998Z" fill="black"/>
<path d="M67.6018 121.983C68.3324 121.974 69.0096 122.085 69.6334 122.315C70.2482 122.555 70.7864 122.891 71.2481 123.324C71.7008 123.766 72.0584 124.283 72.321 124.874C72.5836 125.464 72.719 126.116 72.7273 126.828C72.7355 127.54 72.6152 128.195 72.3664 128.792C72.1176 129.388 71.7674 129.908 71.3158 130.352C70.8643 130.805 70.334 131.153 69.7249 131.398C69.1067 131.652 68.4323 131.783 67.7017 131.791C66.962 131.8 66.2801 131.68 65.6561 131.431C65.0231 131.192 64.4846 130.828 64.0405 130.34L64.9209 129.467C65.2907 129.846 65.7049 130.125 66.1637 130.302C66.6225 130.488 67.1122 130.579 67.6328 130.573C68.1716 130.566 68.6729 130.469 69.1365 130.281C69.5911 130.093 69.9854 129.833 70.3195 129.5C70.6536 129.168 70.9139 128.772 71.1004 128.313C71.2778 127.863 71.3635 127.374 71.3574 126.844C71.3512 126.314 71.2542 125.822 71.0663 125.368C70.8693 124.922 70.6 124.537 70.2582 124.212C69.9165 123.888 69.5163 123.636 69.0575 123.459C68.5896 123.282 68.0863 123.196 67.5475 123.203C67.0269 123.209 66.5393 123.306 66.0848 123.494C65.6304 123.691 65.2228 123.988 64.8621 124.385L63.9616 123.532C64.3943 123.034 64.9242 122.653 65.5514 122.39C66.1695 122.127 66.8529 121.991 67.6018 121.983Z" fill="black"/>
<path d="M54.0286 130.261L52.68 130.02L54.3686 120.579L55.7172 120.821L54.0286 130.261ZM61.1385 121.79L62.4871 122.032L60.7985 131.472L59.4499 131.231L61.1385 121.79ZM54.8432 125.007L60.5208 126.022L60.3109 127.195L54.6333 126.18L54.8432 125.007Z" fill="black"/>
<path d="M41.1789 124.826L43.2996 124.585L43.1991 124.825L41.8824 123.145L42.5651 122.614L43.826 124.285L43.6499 124.315L44.4255 122.427L45.1837 122.744L44.3829 124.622L44.2809 124.475L46.3564 124.201L46.4572 125.06L44.3239 125.295L44.4244 125.055L45.7537 126.74L45.0657 127.284L43.8101 125.6L43.9862 125.57L43.2107 127.458L42.4524 127.141L43.2532 125.263L43.3552 125.41L41.2744 125.697L41.1789 124.826Z" fill="black"/>
<path d="M36.2845 112C36.8906 112.424 37.38 112.912 37.7527 113.463C38.1201 114.021 38.3652 114.61 38.488 115.231C38.6056 115.86 38.5989 116.491 38.468 117.124C38.3371 117.757 38.0675 118.365 37.659 118.949C37.2505 119.532 36.7713 119.994 36.2214 120.334C35.6715 120.673 35.0838 120.892 34.4583 120.989C33.82 121.089 33.1784 121.058 32.5334 120.896C31.8832 120.742 31.2513 120.451 30.6377 120.021C30.0166 119.587 29.5186 119.088 29.1437 118.524C28.7688 117.961 28.5431 117.351 28.4667 116.696L29.6497 116.487C29.7515 117.026 29.9435 117.501 30.2256 117.91C30.495 118.322 30.8504 118.682 31.2919 118.991C31.7409 119.305 32.2123 119.523 32.7062 119.646C33.1925 119.764 33.6721 119.787 34.145 119.717C34.6104 119.641 35.0526 119.471 35.4716 119.207C35.8778 118.945 36.2328 118.597 36.5366 118.163C36.8351 117.737 37.0404 117.284 37.1526 116.805C37.2521 116.328 37.2602 115.855 37.1771 115.384C37.0813 114.916 36.8949 114.473 36.6181 114.056C36.3412 113.64 35.9782 113.274 35.5293 112.96C35.1102 112.667 34.6654 112.45 34.1947 112.31C33.7114 112.173 33.1977 112.142 32.6537 112.218L32.6109 110.918C33.2305 110.861 33.8624 110.929 34.5066 111.124C35.1381 111.321 35.7308 111.613 36.2845 112ZM33.5864 111.818L31.544 114.736L30.4665 113.982L32.6109 110.918L33.5864 111.818Z" fill="black"/>
<path d="M26.8371 111.518L23.3496 108.031L24.1731 107.207L27.6605 110.695L26.8371 111.518ZM29.7627 108.418L25.8102 104.466L26.653 103.623L31.5742 108.544L24.793 115.325L20.0075 110.54L20.8503 109.697L24.6671 113.514L29.7627 108.418Z" fill="black"/>
<path d="M24.079 100.292L17.2696 105.208L19.1941 107.874L18.2276 108.571L13.5849 102.139L14.5514 101.442L16.4758 104.108L23.2852 99.1925L24.079 100.292Z" fill="black"/>
<path d="M18.7209 91.5574L10.0338 95.6196L9.45349 94.3786L18.1406 90.3163L18.7209 91.5574Z" fill="black"/>
<path d="M16.7821 87.6126L7.59574 90.3654L7.27326 89.2893L12.9984 80.9519L13.1675 81.5162L5.62154 83.7775L5.22828 82.4651L14.4147 79.7123L14.7371 80.7884L9.01201 89.1258L8.8429 88.5615L16.3889 86.3002L16.7821 87.6126Z" fill="black"/>
<path d="M13.3045 71.3064L4.91543 71.6952L5.06764 74.9796L3.87701 75.0348L3.50982 67.111L4.70044 67.0558L4.85264 70.3403L13.2417 69.9516L13.3045 71.3064Z" fill="black"/>
<path d="M13.766 60.4387C13.6677 61.1627 13.4541 61.8204 13.125 62.4117C12.7972 62.994 12.3853 63.482 11.8895 63.8755C11.3846 64.2679 10.8209 64.5509 10.1982 64.7245C9.57558 64.8981 8.91581 64.9376 8.21893 64.8431C7.52204 64.7485 6.89665 64.5347 6.34275 64.2014C5.78885 63.8682 5.32539 63.4459 4.95236 62.9344C4.57027 62.4218 4.2988 61.8411 4.13793 61.1925C3.97705 60.544 3.94634 59.8531 4.0458 59.12C4.14402 58.396 4.35644 57.7474 4.68307 57.1741C5.00187 56.5906 5.4137 56.1027 5.91856 55.7103C6.4156 55.3077 6.97483 55.0241 7.59626 54.8596C8.21892 54.686 8.88321 54.647 9.58915 54.7428C10.2951 54.8386 10.925 55.0531 11.4789 55.3863C12.034 55.7105 12.502 56.1334 12.8829 56.6551C13.2559 57.1666 13.5229 57.7466 13.6837 58.3952C13.8368 59.0335 13.8642 59.7147 13.766 60.4387ZM12.5577 60.2748C12.6289 59.7499 12.6041 59.2534 12.4833 58.7854C12.3637 58.3083 12.163 57.8847 11.8814 57.5147C11.592 57.1344 11.2378 56.8237 10.8189 56.5825C10.4012 56.3323 9.9299 56.1716 9.40498 56.1004C8.88005 56.0292 8.38296 56.0585 7.91371 56.1884C7.44568 56.3092 7.02604 56.515 6.6548 56.8057C6.27573 57.0861 5.965 57.4402 5.7226 57.8682C5.48143 58.2871 5.32524 58.759 5.25403 59.284C5.18159 59.8179 5.20518 60.3235 5.3248 60.8005C5.44564 61.2686 5.65078 61.6927 5.94022 62.073C6.22061 62.4521 6.56965 62.7667 6.98733 63.0169C7.40625 63.2581 7.87817 63.4143 8.40309 63.4855C8.92802 63.5567 9.4245 63.5319 9.89252 63.4111C10.3618 63.2812 10.7866 63.0715 11.1668 62.7821C11.5381 62.4914 11.8443 62.1366 12.0855 61.7177C12.3279 61.2897 12.4853 60.8088 12.5577 60.2748Z" fill="black"/>
<path d="M16.1564 50.1464C15.7493 51.3392 15.0878 52.1605 14.1719 52.6103C13.256 53.0602 12.1411 53.0609 10.8272 52.6125L5.66689 50.8513L6.10939 49.5547L11.2179 51.2982C12.2292 51.6433 13.0435 51.6751 13.6607 51.3936C14.2809 51.1034 14.7296 50.5521 15.0069 49.7396C15.2871 48.9184 15.2691 48.2078 14.9528 47.6076C14.6394 46.9989 13.9771 46.5219 12.9658 46.1767L7.85728 44.4333L8.28651 43.1756L13.4469 44.9368C14.7607 45.3852 15.6425 46.0673 16.0924 46.9832C16.5451 47.8905 16.5665 48.9449 16.1564 50.1464Z" fill="black"/>
<path d="M20.4408 40.6211C20.0855 41.2595 19.6531 41.7924 19.1436 42.2196C18.6306 42.6344 18.0715 42.9348 17.4664 43.1207C16.8577 43.2941 16.2318 43.3482 15.5887 43.283C14.9456 43.2178 14.3128 43.012 13.6903 42.6656C13.0678 42.3192 12.5593 41.89 12.1649 41.3778C11.7705 40.8657 11.4928 40.3035 11.3317 39.6913C11.1627 39.0747 11.1232 38.4412 11.2133 37.7911C11.2998 37.1284 11.5207 36.4779 11.876 35.8394C12.2357 35.193 12.6783 34.6606 13.2037 34.2422C13.7256 33.8114 14.3087 33.5244 14.9528 33.3812L15.274 34.579C14.7612 34.7117 14.3139 34.9332 13.9322 35.2434C13.5426 35.5492 13.2212 35.9295 12.9681 36.3844C12.706 36.8553 12.5416 37.3387 12.4747 37.8345C12.4123 38.3224 12.4426 38.7939 12.5656 39.2491C12.6886 39.7042 12.9029 40.1266 13.2087 40.5163C13.511 40.8935 13.8935 41.2109 14.3564 41.4685C14.8193 41.7261 15.2947 41.8861 15.7826 41.9485C16.2669 41.9985 16.7349 41.9558 17.1865 41.8204C17.6381 41.685 18.0548 41.4622 18.4365 41.152C18.8226 40.8337 19.1466 40.4392 19.4087 39.9683C19.6618 39.5134 19.8196 39.042 19.882 38.5542C19.9365 38.0619 19.8809 37.5606 19.7154 37.0504L20.9026 36.6919C21.1204 37.3148 21.1878 37.9638 21.1048 38.6388C21.0263 39.3059 20.805 39.9666 20.4408 40.6211Z" fill="black"/>
<path d="M19.8528 24.879L20.7296 23.8264L28.0982 29.9641L27.2214 31.0168L19.8528 24.879ZM23.6966 35.2484L22.8198 36.3011L15.4512 30.1634L16.328 29.1107L23.6966 35.2484ZM24.016 28.1863L20.3246 32.6181L19.4088 31.8552L23.1002 27.4235L24.016 28.1863Z" fill="black"/>
<path d="M30.8182 16.4318L29.9809 18.3951L29.8217 18.1892L31.9326 17.8734L32.0574 18.7293L29.9815 19.0007L30.0421 18.8327L31.3014 20.4393L30.651 20.942L29.4134 19.3187L29.5913 19.3024L28.8057 21.243L28.0089 20.9066L28.857 18.9349L29.0162 19.1409L26.8945 19.465L26.7613 18.5983L28.8456 18.3377L28.785 18.5057L27.5257 16.8991L28.176 16.3964L29.4136 18.0198L29.2358 18.0361L30.0129 16.0846L30.8182 16.4318Z" fill="black"/>
<path d="M44.4739 18.3857C43.8061 18.704 43.1408 18.8896 42.478 18.9425C41.8113 18.9872 41.1775 18.9099 40.5766 18.7107C39.9718 18.5032 39.4262 18.1866 38.9399 17.7607C38.4536 17.3349 38.0572 16.8004 37.7506 16.1574C37.4441 15.5143 37.2785 14.8698 37.2539 14.2239C37.2292 13.5779 37.3287 12.9588 37.5523 12.3666C37.7802 11.7622 38.1233 11.2191 38.5818 10.7375C39.0363 10.2477 39.6016 9.84161 40.2776 9.51933C40.9619 9.19312 41.6415 9.00573 42.3165 8.95714C42.9915 8.90856 43.633 9.01254 44.2409 9.26909L43.8397 10.4013C43.3201 10.2241 42.8128 10.1573 42.3176 10.2011C41.8268 10.2328 41.3382 10.3645 40.8518 10.5964C40.3571 10.8322 39.9347 11.1347 39.5846 11.504C39.2427 11.8693 38.9859 12.2751 38.8141 12.7212C38.6505 13.1634 38.5805 13.6319 38.6038 14.1267C38.6315 14.6093 38.7593 15.0896 38.9873 15.5678C39.2113 16.0378 39.504 16.4395 39.8654 16.7732C40.2311 17.0946 40.6392 17.3351 41.0897 17.4948C41.5445 17.6422 42.0214 17.6982 42.5205 17.6626C43.0195 17.6271 43.5164 17.4914 44.0111 17.2556C44.4728 17.0355 44.8804 16.7551 45.2341 16.4145C45.5921 16.0618 45.8719 15.6299 46.0735 15.1189L47.2264 15.7228C46.9706 16.2899 46.5994 16.8058 46.1127 17.2706C45.6303 17.7231 45.084 18.0948 44.4739 18.3857ZM45.9626 16.128L44.4298 12.9126L45.617 12.3467L47.2264 15.7228L45.9626 16.128Z" fill="black"/>
<path d="M49.6947 10.3341L54.455 9.0441L54.7596 10.1681L49.9992 11.4581L49.6947 10.3341ZM50.9281 14.4142L56.3231 12.9522L56.6349 14.1026L49.9175 15.923L47.4092 6.66683L53.9414 4.89665L54.2531 6.04706L49.0432 7.4589L50.9281 14.4142Z" fill="black"/>
<path d="M60.6983 13.5165L59.8257 5.16383L56.5555 5.50547L56.4316 4.32002L64.321 3.49581L64.4449 4.68126L61.1747 5.0229L62.0473 13.3755L60.6983 13.5165Z" fill="black"/>
<path d="M71.2647 13.191L72.0774 3.63549L73.4425 3.75159L72.6297 13.3071L71.2647 13.191Z" fill="black"/>
<path d="M75.3535 13.4101L77.5083 4.06534L78.603 4.31776L83.0139 13.4191L82.4398 13.2867L84.2099 5.61064L85.5448 5.91847L83.39 15.2633L82.2953 15.0108L77.8845 5.90951L78.4585 6.04188L76.6885 13.7179L75.3535 13.4101Z" fill="black"/>
<path d="M91.3886 18.4758L95.2257 11.0056L92.301 9.50326L92.8456 8.44305L99.9015 12.0674L99.3569 13.1276L96.4322 11.6253L92.595 19.0955L91.3886 18.4758Z" fill="black"/>
<path d="M100.55 24.2393C99.9707 23.7945 99.5059 23.2825 99.1561 22.7033C98.8134 22.1295 98.5944 21.5298 98.4989 20.904C98.409 20.2709 98.4433 19.6411 98.6018 19.0144C98.7603 18.3877 99.0536 17.7954 99.4816 17.2374C99.9097 16.6795 100.406 16.2428 100.97 15.9275C101.534 15.6121 102.131 15.4196 102.76 15.3497C103.395 15.2726 104.034 15.3253 104.677 15.5077C105.32 15.6901 105.934 16.0064 106.521 16.4568C107.101 16.9015 107.559 17.408 107.894 17.9761C108.242 18.5426 108.461 19.1423 108.551 19.7754C108.654 20.4068 108.622 21.033 108.457 21.6541C108.298 22.2808 108.002 22.8767 107.569 23.4419C107.135 24.0072 106.636 24.4474 106.072 24.7628C105.515 25.0837 104.915 25.2799 104.273 25.3514C103.644 25.4213 103.008 25.365 102.365 25.1826C101.735 24.9985 101.13 24.6841 100.55 24.2393ZM101.293 23.2719C101.713 23.5944 102.156 23.8193 102.622 23.9468C103.096 24.0799 103.563 24.1161 104.024 24.0553C104.498 23.9929 104.944 23.8398 105.361 23.5959C105.786 23.3576 106.159 23.0283 106.482 22.608C106.804 22.1877 107.025 21.7417 107.146 21.2699C107.273 20.8036 107.303 20.3372 107.235 19.8706C107.18 19.4023 107.027 18.9568 106.775 18.5339C106.532 18.1165 106.2 17.7466 105.779 17.4242C105.352 17.0961 104.901 16.8656 104.428 16.7326C103.961 16.6051 103.491 16.5725 103.018 16.6349C102.549 16.6901 102.103 16.8368 101.678 17.0751C101.261 17.319 100.891 17.6511 100.569 18.0714C100.246 18.4917 100.021 18.9349 99.8937 19.4012C99.7734 19.873 99.7445 20.3458 99.8069 20.8197C99.8749 21.2862 100.031 21.7282 100.275 22.1455C100.526 22.5684 100.865 22.9439 101.293 23.2719Z" fill="black"/>
<path d="M108.359 31.468C107.524 30.5234 107.139 29.5419 107.202 28.5235C107.265 27.505 107.816 26.5362 108.857 25.617L112.943 22.0069L113.85 23.0336L109.805 26.6074C109.004 27.315 108.573 28.0065 108.512 28.6822C108.457 29.3646 108.713 30.0276 109.282 30.671C109.856 31.3212 110.483 31.6576 111.161 31.6801C111.845 31.7095 112.587 31.3704 113.388 30.6629L117.433 27.089L118.313 28.0849L114.227 31.6951C113.186 32.6143 112.157 33.0423 111.138 32.9793C110.126 32.9232 109.2 32.4194 108.359 31.468Z" fill="black"/>
<path d="M114.621 40.0639C114.242 39.4389 113.994 38.7993 113.875 38.1451C113.769 37.4939 113.785 36.8595 113.923 36.2417C114.074 35.6271 114.337 35.0566 114.713 34.5303C115.088 34.004 115.58 33.5563 116.189 33.1872C116.799 32.8181 117.424 32.5891 118.064 32.5003C118.704 32.4115 119.33 32.4488 119.942 32.6122C120.561 32.771 121.131 33.0505 121.651 33.4509C122.184 33.8544 122.639 34.3686 123.018 34.9935C123.401 35.6263 123.644 36.2745 123.747 36.9382C123.863 37.605 123.823 38.2537 123.629 38.8842L122.429 38.5697C122.568 38.0584 122.597 37.5602 122.517 37.075C122.444 36.585 122.273 36.1174 122.003 35.6721C121.724 35.2112 121.386 34.8289 120.988 34.5251C120.595 34.2291 120.171 34.0218 119.714 33.9031C119.258 33.7844 118.785 33.7613 118.295 33.8339C117.818 33.9095 117.352 34.0845 116.899 34.359C116.446 34.6334 116.072 34.9671 115.776 35.3599C115.492 35.7558 115.297 36.1835 115.191 36.6429C115.085 37.1023 115.072 37.5746 115.153 38.0598C115.238 38.5529 115.42 39.0299 115.699 39.4908C115.969 39.936 116.3 40.3067 116.693 40.6026C117.094 40.8938 117.556 41.094 118.082 41.203L117.805 42.4118C117.156 42.2924 116.559 42.0294 116.013 41.6228C115.473 41.2241 115.009 40.7045 114.621 40.0639Z" fill="black"/>
<path d="M128.515 47.2066L128.996 48.4893L120.017 51.8583L119.536 50.5756L128.515 47.2066ZM117.601 45.4193L117.12 44.1366L126.099 40.7675L126.58 42.0502L117.601 45.4193ZM123.581 49.1894L121.555 43.7894L122.671 43.3706L124.697 48.7707L123.581 49.1894Z" fill="black"/>
<path d="M130.408 60.973L129.12 59.2716L129.377 59.2356L128.604 61.2249L127.799 60.9084L128.594 58.9716L128.709 59.1076L126.69 59.4033L126.576 58.5892L128.6 58.3206L128.525 58.4831L127.231 56.8379L127.918 56.3131L129.209 58.028L128.951 58.064L129.723 56.0612L130.541 56.3758L129.733 58.3145L129.617 58.1785L131.637 57.8828L131.751 58.6969L129.727 58.9655L129.801 58.803L131.109 60.4463L130.408 60.973Z" fill="black"/>
</svg>
